<svg width="1706" height="594" viewBox="0 0 1706 594" fill="none" xmlns="http://www.w3.org/2000/svg">
<path fill-rule="evenodd" clip-rule="evenodd" d="M435.768 0.512695C471.396 4.69887 502.999 20.1905 528.122 45.5283L529.313 46.7422L531.911 49.416L534.231 52.3359C555.497 79.0942 563.774 112.099 557.644 145.73C556.188 153.717 553.511 162.09 549.212 170.315C546.747 175.031 543.736 179.918 540.107 184.726C542.347 185.342 544.581 186.005 546.805 186.718C551.164 188.115 555.793 189.97 560.517 192.426L561.464 192.926L562.447 193.458C566.759 195.819 570.913 198.432 574.887 201.29C579.142 198.496 583.493 195.835 587.938 193.307L588.685 192.882L589.442 192.474C600.633 186.444 612.486 181.855 624.875 178.795L625.917 178.544C636.757 176.005 649.701 175.14 663.581 178.047C669.054 179.193 674.893 180.881 680.828 183.271C681.485 183.06 682.147 182.852 682.814 182.652C710.34 174.405 735.922 179.495 755.312 187.976C758.309 189.286 761.325 190.807 764.32 192.555C769.001 190.557 773.753 188.686 778.574 186.947L780.183 186.367L781.817 185.86C800.061 180.207 818.703 177.663 837.402 178.249C843.664 170.331 849.994 162.449 856.392 154.603L858.795 151.655L869.515 140.935C872.193 138.257 874.871 135.58 877.548 132.902L878.515 131.949C883.449 127.159 889.875 122 897.976 117.598C916.077 107.763 943.016 98.9778 973.688 106.868C1004.08 114.688 1023.38 135.071 1034.56 152.676L1035.08 153.512L1035.57 154.305C1040.57 162.525 1044.11 171.393 1046.17 180.492C1047.16 184.879 1047.93 189.329 1048.48 193.827C1062.22 186.246 1076.88 180.338 1092.31 176.136L1093.23 175.885L1094.16 175.657C1133.17 166.091 1171.86 172.96 1204.06 196.102C1216.22 190.772 1228.88 186.385 1242.02 182.946L1244.99 182.167L1248.02 181.635C1273.14 177.215 1298.41 178.409 1323.01 185.215L1327.11 186.35L1331.06 187.94C1335.3 189.649 1339.47 191.599 1343.54 193.8C1348.96 190.483 1354.97 187.59 1361.61 185.321C1384.49 177.507 1405.91 180.157 1422 185.377C1431.07 182.854 1440.33 180.98 1449.75 179.762L1450.63 179.653C1454.74 179.163 1459.26 178.913 1464.1 179.079L1465.14 179.121L1466.95 179.218C1479.78 179.996 1493.38 182.802 1506.65 188.679C1521.55 184.469 1536.9 182.449 1552.44 182.481L1553.81 182.495C1560.24 182.608 1566.87 183.423 1573.53 185.072L1574.95 185.438L1576.06 185.738C1599.42 192.153 1626.62 206.32 1643.91 235.377C1645.89 238.716 1647.64 242.078 1649.18 245.447C1663.4 251.532 1674.71 260.669 1683.19 270.264L1684.32 271.565L1685.1 272.502C1701.43 292.199 1705.02 314.157 1705.02 328.673V340.399C1705.02 360.525 1698.28 381.729 1683.43 399.089C1656.9 430.077 1623.72 452.542 1585.26 466.123L1585.26 466.124C1585.2 466.146 1585.14 466.167 1585.07 466.189C1585.01 466.213 1584.94 466.237 1584.87 466.261L1584.87 466.26C1551.16 478.2 1515.61 476.454 1483.06 460.384C1482.09 459.906 1481.11 459.395 1480.1 458.853C1449.34 480.379 1406.65 482.04 1373.77 457.745C1352.99 476.847 1318.42 487.638 1286.22 475.89L1285.13 475.936C1273.11 476.435 1260.87 475.229 1248.82 471.982C1225.7 478.841 1201.68 479.709 1177.92 475.164L1174.64 474.535L1171.42 473.617C1163.06 471.23 1154.88 468.016 1147.03 463.91C1124.94 471.389 1101.96 475.712 1078.29 476.905L1078.29 476.904C1060.39 477.868 1042.51 475.51 1025.47 469.385C1009.66 474.895 993.296 478.61 976.483 480.521L972.651 480.956L968.795 480.996C948.615 481.205 924.909 476.652 903.408 461.344C903.178 461.18 902.949 461.014 902.721 460.849C876.26 472.735 847.686 476.853 818.596 472.772L813.383 472.041L808.323 470.589C808.262 470.571 808.201 470.553 808.14 470.535C789.658 476.192 770.49 478.408 751.114 477.398L748.97 477.287L746.838 477.053C734.259 475.673 721.748 472.55 709.801 467.405C709.621 467.5 709.44 467.595 709.259 467.689C687.276 502.495 660.607 533.629 629.415 560.934L627.037 563.015L624.493 564.889C608.999 576.3 591.814 584.906 573.224 590.376C564.182 593.037 555.563 594 547.901 594H538.543C533.391 594 526.373 593.575 518.358 591.69C486.786 584.268 461.832 563.874 447.838 535.427C444.494 528.63 442.34 521.985 440.985 515.914C438.088 502.932 437.051 490.078 437.81 477.56C427.746 478.377 417.583 478.179 407.413 477.005L404.04 476.615L400.715 475.923C388.196 473.314 375.388 468.949 363.176 462.187C317.383 481.98 267.95 479.952 220.541 461.286L215.815 459.426L213.721 458.254C189.073 476.269 160.346 486.349 129.271 487.906L125.156 488.112L121.044 487.866C77.3443 485.255 39.55 463.969 15.4791 426.269C10.101 417.845 6.21792 408.602 3.95473 398.954C0.371075 383.676 -0.774295 368.091 0.507465 352.486C1.41913 341.388 4.54418 329.103 11.2057 317.147L12.0807 315.607C21.3483 299.605 37.7201 280.92 64.3131 272.089C84.6564 265.334 103.613 266.802 118.819 270.926C127.127 256.335 135.147 241.558 142.875 226.592L143.668 225.056L144.532 223.557C145.053 222.652 145.576 221.747 146.1 220.844C143.112 214.888 140.534 208.581 138.44 201.911C129.008 171.87 131.828 142.225 140.013 116.366L141.104 112.918L142.523 109.591C153 85.0117 169.107 62.4498 192.261 45.3984C215.402 28.3572 241.708 19.6707 268.238 16.9043L268.337 16.8945L268.435 16.8838C287.767 14.9197 306.998 15.6019 325.919 18.9727C343.938 10.7766 362.855 4.89895 382.533 1.39355L383.565 1.21582C388.711 0.361176 393.675 7.07307e-07 398.366 0H431.407L435.768 0.512695Z" fill="white"/>
<path fill-rule="evenodd" clip-rule="evenodd" d="M397.016 75C407.016 75 417.016 75 427.016 75C445.971 77.2271 462.137 85.2271 475.516 99C483.691 109.286 486.358 120.953 483.516 134C478.177 145.566 469.344 149.399 457.016 145.5C455.349 144.5 453.683 143.5 452.016 142.5C448.838 137.145 445.171 132.145 441.016 127.5C426.942 121.111 412.275 119.445 397.016 122.5C392.398 123.069 388.065 124.402 384.016 126.5C405.955 147.55 418.455 173.383 421.516 204C422.183 219 422.183 234 421.516 249C419.81 262.521 417.477 275.854 414.516 289C435.229 271.228 459.062 259.728 486.016 254.5C499.343 252.929 512.343 254.262 525.016 258.5C535.48 263.79 542.48 271.957 546.016 283C564.35 282.508 572.517 291.508 570.516 310C584.438 288.413 602.605 271.246 625.016 258.5C631.499 255.007 638.332 252.507 645.516 251C658.635 252.721 664.802 260.221 664.016 273.5C665.057 280.046 663.39 285.713 659.016 290.5C659.473 290.914 659.807 291.414 660.016 292C628.981 303.336 606.648 324.003 593.016 354C594.88 355.493 597.046 356.16 599.516 356C620.328 351.518 638.661 342.185 654.516 328C665.516 308 676.516 288 687.516 268C697.742 253.224 710.909 249.724 727.016 257.5C734.839 263.957 738.172 272.29 737.016 282.5C737.066 289.213 736.233 295.713 734.516 302C754.278 281.915 777.445 267.082 804.016 257.5C820.184 252.49 836.517 251.823 853.016 255.5C858.135 257.092 862.968 259.259 867.516 262C882.726 241.773 898.392 221.773 914.516 202C920.349 196.167 926.183 190.333 932.016 184.5C949.215 174.351 962.715 177.851 972.516 195C976.704 210.951 973.87 225.451 964.016 238.5C975.308 242.288 980.974 250.122 981.016 262C1008.75 262.236 1019.58 275.903 1013.52 303C1012.46 306.118 1011.12 309.118 1009.52 312C998.604 326.824 987.937 341.824 977.516 357C977.084 358.1 977.584 358.767 979.016 359C993.801 353.941 1007.8 347.274 1021.02 339C1023.03 328.798 1026.53 319.132 1031.52 310C1029.22 290.952 1037.72 281.119 1057.02 280.5C1072.44 264.951 1090.78 254.285 1112.02 248.5C1133.31 243.28 1151.81 248.113 1167.52 263C1174.18 272.332 1177.02 282.665 1176.02 294C1175.27 299.871 1174.1 305.538 1172.52 311C1196.13 283.268 1225.63 264.768 1261.02 255.5C1275.19 253.007 1289.19 253.674 1303.02 257.5C1315.03 262.342 1323.03 270.842 1327.02 283C1338.76 281.267 1346.6 285.934 1350.52 297C1350.85 301.667 1351.19 306.333 1351.52 311C1358.9 302.623 1365.9 293.956 1372.52 285C1372.66 278.919 1373.32 272.919 1374.52 267C1380.51 255.999 1389.34 252.832 1401.02 257.5C1403.19 259 1405.35 260.5 1407.52 262C1409.12 264.878 1410.95 267.544 1413.02 270C1427.75 261.367 1443.58 256.034 1460.52 254C1477.41 254.42 1488.74 262.42 1494.52 278C1511.86 263.91 1531.7 257.077 1554.02 257.5C1577.99 263.234 1587.49 278.4 1582.52 303C1578.2 319.47 1570.37 333.97 1559.02 346.5C1565.65 344.016 1571.98 340.683 1578.02 336.5C1585.98 330.206 1593.65 323.54 1601.02 316.5C1613.11 310.146 1622.77 312.646 1630.02 324C1630.02 331.333 1630.02 338.667 1630.02 346C1611.61 369.073 1588.28 385.573 1560.02 395.5C1544.51 401.044 1529.51 400.044 1515.02 392.5C1510.7 389.185 1507.54 385.019 1505.52 380C1501.8 364.672 1504.13 350.339 1512.52 337C1520.88 326.81 1529.04 316.477 1537.02 306C1536.52 305.667 1536.02 305.333 1535.52 305C1522.59 311.213 1510.75 319.046 1500.02 328.5C1474.86 353.07 1451.69 379.236 1430.52 407C1420.6 399.287 1410.76 391.454 1401.02 383.5C1402.35 382.167 1403.69 380.833 1405.02 379.5C1403.69 378.167 1402.35 376.833 1401.02 375.5C1418.51 356 1434.68 335.5 1449.52 314C1452.14 309.454 1454.14 304.787 1455.52 300C1433.05 308.978 1412.55 321.145 1394.02 336.5C1385.69 343.5 1377.35 350.5 1369.02 357.5C1351.81 375.211 1334.14 392.378 1316.02 409C1311.58 406.059 1307.58 402.559 1304.02 398.5C1296.75 399.371 1289.41 400.204 1282.02 401C1269.56 401.518 1258.9 397.518 1250.02 389C1232.43 401.366 1213.1 405.533 1192.02 401.5C1177.56 397.371 1167.06 388.538 1160.52 375C1134.21 391.435 1105.55 400.435 1074.52 402C1056.88 403.013 1041.88 397.346 1029.52 385C1010.51 396.501 990.011 403.501 968.016 406C950.38 406.183 939.213 397.85 934.516 381C933.849 373 933.849 365 934.516 357C936.223 351.224 937.89 345.557 939.516 340C921.567 360.957 900.4 377.79 876.016 390.5C861.134 398.142 845.468 400.808 829.016 398.5C821.777 396.422 816.11 392.255 812.016 386C794.917 398.089 775.917 403.589 755.016 402.5C737.688 400.599 724.855 392.099 716.516 377C697.074 389.308 676.907 400.475 656.016 410.5C636.155 446.202 610.821 477.535 580.016 504.5C570.851 511.25 560.851 516.084 550.016 519C545.683 519 541.349 519 537.016 519C526.472 516.97 518.972 510.97 514.516 501C509.499 480.397 514.166 462.397 528.516 447C545.795 428.874 564.962 413.208 586.016 400C574.152 396.791 564.818 390.125 558.016 380C541.133 392.189 522.3 399.189 501.516 401C489.008 401.223 478.175 397.223 469.016 389C453.065 400.238 435.398 404.738 416.016 402.5C393.277 397.761 380.11 383.928 376.516 361C340.704 400.961 297.87 411.128 248.016 391.5C228.223 380.421 217.057 363.588 214.516 341C204.575 359.706 192.075 376.539 177.016 391.5C162.493 404.84 145.327 412.007 125.516 413C104.292 411.732 88.2921 402.065 77.5158 384C75.0781 374.823 74.4114 365.489 75.5158 356C81.8387 342.668 91.672 339.168 105.016 345.5C110.065 349.416 113.231 354.583 114.516 361C119.09 365.65 124.59 367.15 131.016 365.5C140.33 363.092 148.163 358.258 154.516 351C162.622 341.562 169.955 331.562 176.516 321C188.024 301.321 199.024 281.321 209.516 261C218.119 246.069 227.119 231.402 236.516 217C237.498 215.741 237.831 214.408 237.516 213C210.223 195.132 201.556 170.465 211.516 139C223.642 110.553 245.142 94.7193 276.016 91.5C296.467 89.4222 316.3 91.9222 335.516 99C354.452 86.7481 374.952 78.7481 397.016 75ZM285.016 137C287.703 136.836 290.37 137.003 293.016 137.5C282.919 148.928 273.585 160.928 265.016 173.5C258.819 172.305 253.652 169.138 249.516 164C248.215 162.135 247.881 160.135 248.516 158C257.456 145.445 269.623 138.445 285.016 137ZM369.016 177C374.067 183.101 377.567 190.101 379.516 198C387.822 244.11 378.156 286.11 350.516 324C338.493 338.757 323.327 348.59 305.016 353.5C289.077 357.289 274.411 354.623 261.016 345.5C256.658 341.806 253.991 337.14 253.016 331.5C253.929 326.921 256.596 323.921 261.016 322.5C266.016 321.833 271.016 321.833 276.016 322.5C284.655 324.572 293.155 327.072 301.516 330C309.76 329.221 315.76 325.221 319.516 318C325.946 297.346 318.779 284.513 298.016 279.5C282.123 275.099 266.123 274.099 250.016 276.5C260.621 258.899 271.621 241.566 283.016 224.5C298.906 223.778 313.906 219.778 328.016 212.5C341.347 204.914 353.514 195.747 364.516 185C366.281 182.468 367.781 179.801 369.016 177ZM933.016 272C934.346 274.94 934.179 277.94 932.516 281C914.035 308.224 890.702 330.224 862.516 347C862.201 345.592 862.534 344.259 863.516 343C867.516 337 871.516 331 875.516 325C895.179 307.835 914.346 290.169 933.016 272ZM1121.02 292C1124.7 291.835 1128.37 292.001 1132.02 292.5C1123.66 297.507 1114.66 299.507 1105.02 298.5C1110.34 295.997 1115.67 293.831 1121.02 292ZM827.016 298C831.03 297.834 835.03 298.001 839.016 298.5C839.796 299.573 839.629 300.74 838.516 302C821.351 323.505 800.851 341.005 777.016 354.5C770.667 357.593 764.001 358.593 757.016 357.5C754.32 356.81 752.153 355.31 750.516 353C751.511 348.623 753.511 344.623 756.516 341C775.846 319.596 799.346 305.262 827.016 298ZM490.016 299C495.868 298.551 501.535 299.051 507.016 300.5C492.557 316.629 476.557 330.962 459.016 343.5C450.728 349.478 441.728 354.144 432.016 357.5C428.349 358.167 424.683 358.167 421.016 357.5C414.651 355.739 413.484 352.239 417.516 347C436.502 323.096 460.668 307.096 490.016 299ZM1271.02 299C1276.35 299 1281.69 299 1287.02 299C1287.17 300.052 1287 301.052 1286.52 302C1273.6 316.255 1259.43 329.088 1244.02 340.5C1236.18 346.255 1227.85 351.255 1219.02 355.5C1211.63 358.731 1204.3 358.731 1197.02 355.5C1195.94 353.774 1195.78 351.941 1196.52 350C1211.93 328.931 1231.76 313.431 1256.02 303.5C1261.1 301.82 1266.1 300.32 1271.02 299ZM1126.02 343C1105.37 354.764 1083.37 358.597 1060.02 354.5C1058.94 353.761 1058.27 352.761 1058.02 351.5C1059.18 348 1060.35 344.5 1061.52 341C1062.2 338.945 1063.37 337.279 1065.02 336C1084.73 343.669 1105.06 346.003 1126.02 343ZM399.016 79C420.158 77.1337 440.158 80.967 459.016 90.5C467.988 96.8118 474.822 104.978 479.516 115C480.393 121.749 480.06 128.416 478.516 135C472.845 142.78 465.679 144.614 457.016 140.5C453.349 135.5 449.683 130.5 446.016 125.5C441.408 122.363 436.408 120.03 431.016 118.5C415.535 116.061 400.202 116.728 385.016 120.5C381.511 121.157 378.511 122.657 376.016 125C405.016 150.682 419.016 183.016 418.016 222C418.121 240.203 416.287 258.203 412.516 276C409.812 285.432 407.145 294.765 404.516 304C427.465 280.749 454.965 265.582 487.016 258.5C499.322 257.205 511.322 258.538 523.016 262.5C534.58 268.122 541.413 277.289 543.516 290C552.032 285.057 559.032 286.724 564.516 295C565.732 299.802 566.232 304.635 566.016 309.5C565.625 312.677 564.459 315.51 562.516 318C542.232 330.284 523.065 344.117 505.016 359.5C520.001 356.176 533.668 349.843 546.016 340.5C553.183 334.667 560.349 328.833 567.516 323C583.65 293.198 607.15 271.365 638.016 257.5C647.814 253.819 654.981 256.653 659.516 266C660.183 271.333 660.183 276.667 659.516 282C658.455 285.062 656.622 287.562 654.016 289.5C623.219 301.964 601.385 323.464 588.516 354C587.735 355.444 587.902 356.777 589.016 358C597.335 360.6 605.668 360.433 614.016 357.5C629.255 351.551 643.255 343.551 656.016 333.5C668.23 312.576 680.063 291.409 691.516 270C700.212 257.458 711.378 254.625 725.016 261.5C731.321 267.081 733.654 274.081 732.016 282.5C732.813 290.477 731.313 297.977 727.516 305C720.551 317.303 712.051 328.47 702.016 338.5C714.941 332.584 725.107 323.418 732.516 311C754.42 286.131 781.253 268.964 813.016 259.5C825.673 257.551 838.339 257.551 851.016 259.5C857.665 261.24 863.499 264.407 868.516 269C885.7 245.971 903.366 223.305 921.516 201C927.586 193.256 935.086 187.423 944.016 183.5C955.398 182.109 963.564 186.609 968.516 197C971.965 214.583 967.465 229.75 955.016 242.5C970.165 242.816 977.831 250.65 978.016 266C1005.4 264.881 1015.57 277.547 1008.52 304C1005.77 309.166 1002.77 314.166 999.516 319C987.16 333.203 976.66 348.703 968.016 365.5C968.849 365.667 969.683 365.833 970.516 366C990.073 360.72 1008.41 352.72 1025.52 342C1026.85 331.338 1030.18 321.338 1035.52 312C1035.85 306.667 1036.18 301.333 1036.52 296C1041.02 287.832 1047.85 284.666 1057.02 286.5C1074.13 268.606 1094.8 256.94 1119.02 251.5C1137.52 248.887 1153.02 254.387 1165.52 268C1177.19 293.489 1171.36 313.989 1148.02 329.5C1131.68 337.968 1114.35 341.301 1096.02 339.5C1084.51 337.12 1073.17 334.454 1062.02 331.5C1056.89 338.549 1054.39 346.382 1054.52 355C1056.45 357.606 1058.95 359.439 1062.02 360.5C1085.25 362.526 1107.25 358.192 1128.02 347.5C1140.69 341.171 1152.69 333.837 1164.02 325.5C1173.97 315.554 1183.97 305.554 1194.02 295.5C1215.64 276.521 1240.64 264.188 1269.02 258.5C1287.11 255.536 1302.95 260.036 1316.52 272C1320.42 277.128 1323.25 282.795 1325.02 289C1333.5 285.32 1340.33 287.32 1345.52 295C1346.19 301.333 1346.19 307.667 1345.52 314C1344.85 315.333 1344.19 316.667 1343.52 318C1323.24 330.284 1304.07 344.117 1286.02 359.5C1296.62 357.21 1306.62 353.21 1316.02 347.5C1341.57 331.619 1362.07 310.786 1377.52 285C1377.85 279.667 1378.19 274.333 1378.52 269C1383.77 259.656 1391.27 257.489 1401.02 262.5C1405.41 266.453 1408.41 271.286 1410.02 277C1421.61 269.87 1433.95 264.37 1447.02 260.5C1461.88 255.963 1474.71 259.129 1485.52 270C1489.04 274.386 1490.87 279.386 1491.02 285C1496.36 282.521 1501.36 279.354 1506.02 275.5C1521.09 264.954 1537.76 260.62 1556.02 262.5C1566.19 264.674 1573.36 270.507 1577.52 280C1578.66 290.817 1577.99 301.483 1575.52 312C1567.74 327.906 1557.74 342.239 1545.52 355C1544.93 355.983 1545.26 356.65 1546.52 357C1568.03 349.831 1586.53 337.997 1602.02 321.5C1610.28 315.069 1617.78 315.902 1624.52 324C1626.49 331.641 1626.49 339.308 1624.52 347C1603.42 370.438 1577.59 385.938 1547.02 393.5C1513.71 396.103 1501.88 381.269 1511.52 349C1513.68 344.008 1516.35 339.341 1519.52 335C1529.84 323.683 1539.01 311.516 1547.02 298.5C1542.49 297.766 1538.16 298.433 1534.02 300.5C1518.63 308.193 1504.63 317.859 1492.02 329.5C1469.32 351.853 1448.49 375.686 1429.52 401C1422.18 395.159 1415.02 389.159 1408.02 383C1409.02 381.667 1410.02 380.333 1411.02 379C1409.38 377.584 1408.55 375.917 1408.52 374C1424.67 355.524 1439.67 336.191 1453.52 316C1457.48 309.421 1460.31 302.421 1462.02 295C1456.51 295.335 1451.18 296.502 1446.02 298.5C1418.77 312.285 1393.77 329.285 1371.02 349.5C1352.53 367.152 1334.2 384.985 1316.02 403C1312.18 398.648 1307.68 395.314 1302.52 393C1290.79 396.216 1278.96 396.716 1267.02 394.5C1260.45 392.382 1255.11 388.548 1251.02 383C1235.21 394.535 1217.55 399.702 1198.02 398.5C1185.83 395.959 1176 389.792 1168.52 380C1166.84 375.968 1164.68 372.301 1162.02 369C1140.71 382.268 1117.71 391.102 1093.02 395.5C1080.35 397.5 1067.68 397.5 1055.02 395.5C1045.43 392.462 1037.26 387.295 1030.52 380C1012.31 389.86 993.14 397.027 973.016 401.5C950.255 403.076 938.589 392.409 938.016 369.5C938.002 361.386 939.502 353.553 942.516 346C950.298 330.403 959.464 315.736 970.016 302C968.408 301.182 966.741 300.515 965.016 300C943.871 332.311 917.205 359.145 885.016 380.5C870.806 389.116 855.472 393.95 839.016 395C827.005 395.308 818.671 389.975 814.016 379C801.39 388.158 787.39 394.325 772.016 397.5C752.415 400.767 736.249 394.934 723.516 380C721.849 376.667 720.183 373.333 718.516 370C697.737 383.979 675.903 396.312 653.016 407C634.408 439.792 611.408 469.292 584.016 495.5C573.228 504.728 560.894 511.061 547.016 514.5C533.184 516.242 523.684 510.742 518.516 498C515.604 485.814 516.937 474.147 522.516 463C530.224 450.955 539.724 440.455 551.016 431.5C566.793 419.057 583.126 407.391 600.016 396.5C581.543 397.107 568.209 389.273 560.016 373C546.788 382.281 532.455 389.447 517.016 394.5C506.669 396.39 496.335 396.39 486.016 394.5C479.68 391.988 474.347 388.155 470.016 383C454.196 394.552 436.53 399.718 417.016 398.5C391.068 391.811 378.901 374.978 380.516 348C351.653 388.337 312.82 403.504 264.016 393.5C231.689 382.157 216.523 359.323 218.516 325C206.216 349.97 190.049 372.136 170.016 391.5C151.966 406.096 131.633 410.762 109.016 405.5C95.9581 400.405 86.4581 391.572 80.5158 379C79.01 372.067 78.6767 365.067 79.5158 358C84.2516 346.89 92.0849 344.057 103.016 349.5C104.182 350.667 105.349 351.833 106.516 353C108.33 357.453 110.33 361.786 112.516 366C125.865 372.35 138.365 370.85 150.016 361.5C163.91 347.529 175.744 332.029 185.516 315C203.552 279.504 223.385 245.17 245.016 212C216.218 196.482 206.384 172.815 215.516 141C227.631 113.888 248.465 98.7213 278.016 95.5C297.987 94.1067 317.32 96.94 336.016 104C355.216 90.8919 376.216 82.5585 399.016 79ZM285.016 137C269.623 138.445 257.456 145.445 248.516 158C247.881 160.135 248.215 162.135 249.516 164C253.652 169.138 258.819 172.305 265.016 173.5C273.585 160.928 282.919 148.928 293.016 137.5C290.37 137.003 287.703 136.836 285.016 137ZM369.016 177C367.781 179.801 366.281 182.468 364.516 185C353.514 195.747 341.347 204.914 328.016 212.5C313.906 219.778 298.906 223.778 283.016 224.5C271.621 241.566 260.621 258.899 250.016 276.5C266.123 274.099 282.123 275.099 298.016 279.5C318.779 284.513 325.946 297.346 319.516 318C315.76 325.221 309.76 329.221 301.516 330C293.155 327.072 284.655 324.572 276.016 322.5C271.016 321.833 266.016 321.833 261.016 322.5C256.596 323.921 253.929 326.921 253.016 331.5C253.991 337.14 256.658 341.806 261.016 345.5C274.411 354.623 289.077 357.289 305.016 353.5C323.327 348.59 338.493 338.757 350.516 324C378.156 286.11 387.822 244.11 379.516 198C377.567 190.101 374.067 183.101 369.016 177ZM933.016 272C914.346 290.169 895.179 307.835 875.516 325C871.516 331 867.516 337 863.516 343C862.534 344.259 862.201 345.592 862.516 347C890.702 330.224 914.035 308.224 932.516 281C934.179 277.94 934.346 274.94 933.016 272ZM1121.02 292C1115.67 293.831 1110.34 295.997 1105.02 298.5C1114.66 299.507 1123.66 297.507 1132.02 292.5C1128.37 292.001 1124.7 291.835 1121.02 292ZM827.016 298C799.346 305.262 775.846 319.596 756.516 341C753.511 344.623 751.511 348.623 750.516 353C752.153 355.31 754.32 356.81 757.016 357.5C764.001 358.593 770.667 357.593 777.016 354.5C800.851 341.005 821.351 323.505 838.516 302C839.629 300.74 839.796 299.573 839.016 298.5C835.03 298.001 831.03 297.834 827.016 298ZM490.016 299C460.668 307.096 436.502 323.096 417.516 347C413.484 352.239 414.651 355.739 421.016 357.5C424.683 358.167 428.349 358.167 432.016 357.5C441.728 354.144 450.728 349.478 459.016 343.5C476.557 330.962 492.557 316.629 507.016 300.5C501.535 299.051 495.868 298.551 490.016 299ZM1271.02 299C1266.1 300.32 1261.1 301.82 1256.02 303.5C1231.76 313.431 1211.93 328.931 1196.52 350C1195.78 351.941 1195.94 353.774 1197.02 355.5C1204.3 358.731 1211.63 358.731 1219.02 355.5C1227.85 351.255 1236.18 346.255 1244.02 340.5C1259.43 329.088 1273.6 316.255 1286.52 302C1287 301.052 1287.17 300.052 1287.02 299C1281.69 299 1276.35 299 1271.02 299ZM1126.02 343C1105.06 346.003 1084.73 343.669 1065.02 336C1063.37 337.279 1062.2 338.945 1061.52 341C1060.35 344.5 1059.18 348 1058.02 351.5C1058.27 352.761 1058.94 353.761 1060.02 354.5C1083.37 358.597 1105.37 354.764 1126.02 343ZM399.016 83C419.884 80.97 439.551 84.8034 458.016 94.5C466.061 99.877 471.894 107.044 475.516 116C476.84 126.341 472.34 131.174 462.016 130.5C460.435 129.794 458.935 128.96 457.516 128C452.406 115.689 443.239 108.523 430.016 106.5C405.409 102.045 382.409 106.212 361.016 119C396.571 143.435 414.237 177.435 414.016 221C413.301 264.975 400.468 304.975 375.516 341C360.446 360.417 341.279 373.917 318.016 381.5C290.042 389.895 264.375 385.562 241.016 368.5C226.048 354.158 220.215 336.658 223.516 316C228.777 297.405 240.944 286.572 260.016 283.5C272.924 283.206 285.591 284.873 298.016 288.5C304.582 289.749 309.415 293.249 312.516 299C313.19 309.324 308.357 313.824 298.016 312.5C284.928 306.107 271.262 304.107 257.016 306.5C248.362 310.805 244.362 317.805 245.016 327.5C244.851 339.002 249.517 348.002 259.016 354.5C271.948 362.324 285.948 364.991 301.016 362.5C323.678 358.753 342.178 347.92 356.516 330C376.827 302.419 388.494 271.419 391.516 237C395.075 209.991 389.741 184.991 375.516 162C366.231 149.375 354.565 139.708 340.516 133C323.145 147.958 307.978 164.791 295.016 183.5C303.075 182.257 310.741 179.59 318.016 175.5C327.269 168.918 335.936 161.584 344.016 153.5C350.565 149.682 356.065 150.849 360.516 157C361.557 161.94 360.89 166.607 358.516 171C335.892 193.979 308.558 206.979 276.516 210C266.849 225.333 257.183 240.667 247.516 256C231.103 285.828 214.436 315.495 197.516 345C189.76 356.659 180.926 367.493 171.016 377.5C155.427 391.696 137.093 397.696 116.016 395.5C102.608 391.746 92.4414 383.913 85.5158 372C82.9704 366.756 82.6371 361.423 84.5158 356C89.6013 350.384 95.4347 349.551 102.016 353.5C104.234 357.484 106.067 361.65 107.516 366C114.404 373.612 122.904 376.112 133.016 373.5C143.58 371.265 152.413 366.098 159.516 358C167.577 348.872 174.911 339.205 181.516 329C196.103 303.495 210.436 277.828 224.516 252C234.433 235.831 244.6 219.831 255.016 204C225.202 193.349 213.368 172.683 219.516 142C230.638 116.503 250.138 102.337 278.016 99.5C298.105 98.1534 317.605 100.987 336.516 108C355.705 95.314 376.538 86.9806 399.016 83ZM285.016 137C269.623 138.445 257.456 145.445 248.516 158C247.881 160.135 248.215 162.135 249.516 164C253.652 169.138 258.819 172.305 265.016 173.5C273.585 160.928 282.919 148.928 293.016 137.5C290.37 137.003 287.703 136.836 285.016 137ZM279.016 121C285.691 120.834 292.358 121 299.016 121.5C304.98 121.827 310.647 123.16 316.016 125.5C298.963 143.137 283.463 161.97 269.516 182C268.777 183.074 267.777 183.741 266.516 184C254.112 181.307 245.112 174.307 239.516 163C237.967 155.381 239.3 148.381 243.516 142C252.914 130.724 264.748 123.724 279.016 121ZM285.016 137C269.623 138.445 257.456 145.445 248.516 158C247.881 160.135 248.215 162.135 249.516 164C253.652 169.138 258.819 172.305 265.016 173.5C273.585 160.928 282.919 148.928 293.016 137.5C290.37 137.003 287.703 136.836 285.016 137ZM279.016 133C286.754 132.644 294.421 133.144 302.016 134.5C289.208 148.302 277.542 162.969 267.016 178.5C256.191 177.354 248.358 171.854 243.516 162C244.521 154.847 248.021 149.013 254.016 144.5C261.676 139.011 270.009 135.178 279.016 133ZM285.016 137C269.623 138.445 257.456 145.445 248.516 158C247.881 160.135 248.215 162.135 249.516 164C253.652 169.138 258.819 172.305 265.016 173.5C273.585 160.928 282.919 148.928 293.016 137.5C290.37 137.003 287.703 136.836 285.016 137ZM340.016 146C341.939 146.295 343.606 147.128 345.016 148.5C337.388 154.46 330.054 160.793 323.016 167.5C320.482 169.434 317.815 170.768 315.016 171.5C322.882 162.468 331.215 153.968 340.016 146ZM365.016 165C372.805 172.539 378.639 181.539 382.516 192C393.043 240.234 384.043 284.567 355.516 325C336.054 350.715 310.221 361.882 278.016 358.5C266.047 355.852 256.881 349.352 250.516 339C247.054 325.255 252.387 317.922 266.516 317C277.176 317.54 287.343 320.04 297.016 324.5C308.311 326.037 314.978 321.204 317.016 310C318.819 300.249 315.485 292.749 307.016 287.5C288.547 279.887 269.547 277.887 250.016 281.5C246.762 282.527 243.762 284.027 241.016 286C239.995 285.498 239.828 284.832 240.516 284C253.088 262.27 266.255 240.936 280.016 220C312.971 217.772 340.471 204.438 362.516 180C364.66 175.242 365.493 170.242 365.016 165ZM369.016 177C367.781 179.801 366.281 182.468 364.516 185C353.514 195.747 341.347 204.914 328.016 212.5C313.906 219.778 298.906 223.778 283.016 224.5C271.621 241.566 260.621 258.899 250.016 276.5C266.123 274.099 282.123 275.099 298.016 279.5C318.779 284.513 325.946 297.346 319.516 318C315.76 325.221 309.76 329.221 301.516 330C293.155 327.072 284.655 324.572 276.016 322.5C271.016 321.833 266.016 321.833 261.016 322.5C256.596 323.921 253.929 326.921 253.016 331.5C253.991 337.14 256.658 341.806 261.016 345.5C274.411 354.623 289.077 357.289 305.016 353.5C323.327 348.59 338.493 338.757 350.516 324C378.156 286.11 387.822 244.11 379.516 198C377.567 190.101 374.067 183.101 369.016 177ZM1487.02 284C1486.7 287.398 1487.03 290.732 1488.02 294C1488.63 293.876 1488.96 293.543 1489.02 293C1502.95 280.609 1518.95 271.775 1537.02 266.5C1550.89 263.019 1562.39 266.519 1571.52 277C1572.19 278.333 1572.85 279.667 1573.52 281C1575.28 291.273 1573.61 300.94 1568.52 310C1560.4 323.23 1551.07 335.564 1540.52 347C1536.95 351.475 1534.45 356.475 1533.02 362C1546.33 362.066 1558.66 358.566 1570.02 351.5C1583.88 342.649 1596.88 332.649 1609.02 321.5C1620.81 321.213 1624.64 326.713 1620.52 338C1600.68 359.006 1576.85 373.506 1549.02 381.5C1542.02 382.167 1535.02 382.167 1528.02 381.5C1514.11 376.149 1509.61 366.316 1514.52 352C1517.01 346.343 1520.01 341.01 1523.52 336C1532.28 326.577 1540.28 316.577 1547.52 306C1550 301.865 1552 297.532 1553.52 293C1554.28 290.731 1554.11 288.564 1553.02 286.5C1548.35 285.833 1543.69 285.833 1539.02 286.5C1522.2 292.999 1507.2 302.332 1494.02 314.5C1470.46 336.716 1449.13 360.716 1430.02 386.5C1428.24 386.456 1426.57 385.789 1425.02 384.5C1421.52 381.667 1418.02 378.833 1414.52 376C1413.85 375 1413.85 374 1414.52 373C1425.56 360.291 1436.23 347.291 1446.52 334C1455.57 322.241 1462.23 309.241 1466.52 295C1467.48 290.928 1466.98 287.095 1465.02 283.5C1457.3 282.596 1449.97 283.929 1443.02 287.5C1428.24 294.639 1414.24 302.972 1401.02 312.5C1388.06 322.455 1375.4 332.788 1363.02 343.5C1347.78 359.408 1331.95 374.575 1315.52 389C1311.85 386 1308.19 383 1304.52 380C1292.27 384.262 1279.77 385.095 1267.02 382.5C1260.58 379.723 1255.74 375.223 1252.52 369C1239.18 379.115 1224.18 385.115 1207.52 387C1185.03 386.674 1170.86 375.674 1165.02 354C1145.04 367.322 1123.37 376.822 1100.02 382.5C1084 385.733 1067.99 385.733 1052.02 382.5C1043.36 379.51 1036.86 374.01 1032.52 366C1013.94 377.041 994.102 384.875 973.016 389.5C954.291 391.817 943.957 383.65 942.016 365C943.414 354.307 946.914 344.307 952.516 335C961.821 319.888 971.988 305.388 983.016 291.5C976.681 290.333 970.348 289.166 964.016 288C959.066 293.479 954.566 299.479 950.516 306C944.516 313.333 938.516 320.667 932.516 328C917.92 343.524 901.754 357.024 884.016 368.5C875.589 373.047 866.922 377.047 858.016 380.5C848.054 383.099 838.054 383.432 828.016 381.5C821.136 377.279 817.636 371.112 817.516 363C798.693 380.275 776.526 387.775 751.016 385.5C735.221 381.37 725.054 371.537 720.516 356C698.377 370.767 675.21 383.934 651.016 395.5C632.847 427.016 610.847 455.682 585.016 481.5C575.183 490.655 563.85 497.321 551.016 501.5C530.574 505.05 520.741 496.55 521.516 476C523.462 469.442 526.462 463.442 530.516 458C538.683 448.5 547.516 439.667 557.016 431.5C581.335 412.865 607.002 396.198 634.016 381.5C636.238 378.882 637.738 376.049 638.516 373C622.943 382.524 606.11 386.024 588.016 383.5C574.147 380.298 565.647 371.798 562.516 358C548.319 369.183 532.486 377.349 515.016 382.5C506.73 383.954 498.397 384.287 490.016 383.5C481.502 381.652 475.335 376.818 471.516 369C458.306 379.437 443.306 385.437 426.516 387C398.144 385.298 384.477 370.298 385.516 342C389.01 329.343 395.343 318.343 404.516 309C424.207 289.065 447.373 274.565 474.016 265.5C490.933 260.378 507.599 261.044 524.016 267.5C535.297 274.116 540.464 283.949 539.516 297C544.46 291.793 550.293 290.293 557.016 292.5C563.683 298.167 563.683 303.833 557.016 309.5C535.499 321.681 515.666 336.181 497.516 353C495.273 355.574 493.44 358.408 492.016 361.5C492.421 362.445 493.088 363.112 494.016 363.5C504.909 364.455 515.242 362.455 525.016 357.5C542.37 348.906 557.87 337.74 571.516 324C587.648 295.204 610.815 274.037 641.016 260.5C653.478 258.939 657.811 264.106 654.016 276C637.063 283.725 621.897 294.059 608.516 307C603.516 313.333 598.516 319.667 593.516 326C589.415 332.962 586.082 340.296 583.516 348C581.285 356.043 584.118 361.21 592.016 363.5C598.731 364.211 605.398 363.878 612.016 362.5C629.792 356.033 645.958 346.866 660.516 335C672.183 313.667 683.849 292.333 695.516 271C702.181 262.25 710.681 259.75 721.016 263.5C727.744 269.128 729.911 276.295 727.516 285C723.008 298.171 716.008 309.838 706.516 320C697.118 330.067 687.118 339.4 676.516 348C673.249 353.2 670.582 358.534 668.516 364C687.612 353.874 705.779 342.374 723.016 329.5C741.581 304.212 764.914 284.545 793.016 270.5C813.412 261.231 834.412 259.564 856.016 265.5C860.731 267.527 864.731 270.527 868.016 274.5C868.683 275.167 869.349 275.167 870.016 274.5C886.082 251.765 902.915 229.599 920.516 208C927.085 200.761 934.251 194.261 942.016 188.5C959.386 185.87 966.886 193.37 964.516 211C963.32 215.723 961.32 220.057 958.516 224C946.117 239.403 932.617 253.903 918.016 267.5C901.551 281.63 885.385 296.13 869.516 311C858.013 327.33 847.513 344.33 838.016 362C844.918 362.722 851.585 361.555 858.016 358.5C881.659 347.194 902.159 331.694 919.516 312C928.338 301.022 936.671 289.689 944.516 278C943.785 272.884 942.951 267.718 942.016 262.5C942.621 253.06 947.621 247.56 957.016 246C964.955 246.44 970.121 250.44 972.516 258C972.793 261.973 972.96 265.806 973.016 269.5C980.714 270.335 988.381 271.335 996.016 272.5C1004.93 276.153 1008.09 282.653 1005.52 292C1004.46 295.118 1003.12 298.118 1001.52 301C994.093 311.512 986.426 321.845 978.516 332C973.051 339.481 968.385 347.481 964.516 356C962.888 360.281 962.721 364.614 964.016 369C965.455 369.563 966.955 369.897 968.516 370C989.786 365.077 1009.62 356.744 1028.02 345C1030.48 331.612 1035.48 319.279 1043.02 308C1037.65 299.028 1039.98 293.028 1050.02 290C1052.2 290.094 1054.2 290.761 1056.02 292C1070.15 278.432 1086.15 267.599 1104.02 259.5C1120.67 253.033 1137.01 253.7 1153.02 261.5C1169.23 274.516 1171.4 289.683 1159.52 307C1145.18 320.746 1128.02 327.746 1108.02 328C1092 327.12 1076.5 323.787 1061.52 318C1054.22 326.781 1050.05 336.947 1049.02 348.5C1049.39 353.579 1051.39 357.912 1055.02 361.5C1058.04 361.633 1060.71 362.633 1063.02 364.5C1075.11 365.453 1087.11 364.786 1099.02 362.5C1126.77 354.126 1151.77 340.793 1174.02 322.5C1192.72 299.308 1215.72 281.641 1243.02 269.5C1259.09 262.285 1275.75 260.285 1293.02 263.5C1311.03 267.501 1320.19 278.667 1320.52 297C1324.5 292.757 1329.33 290.924 1335.02 291.5C1341.71 294.081 1343.87 298.914 1341.52 306C1322.46 318.39 1303.96 331.557 1286.02 345.5C1280.54 349.975 1276.2 355.308 1273.02 361.5C1273.43 362.445 1274.09 363.112 1275.02 363.5C1284.04 364.496 1292.71 363.162 1301.02 359.5C1325.2 348.34 1345.7 332.506 1362.52 312C1370.67 302.364 1377.84 292.031 1384.02 281C1379.41 269.117 1383.41 263.617 1396.02 264.5C1403.85 269.313 1406.85 276.146 1405.02 285C1421.36 273.078 1439.53 265.745 1459.52 263C1474.44 262.781 1483.61 269.781 1487.02 284ZM1121.02 292C1115.67 293.831 1110.34 295.997 1105.02 298.5C1114.66 299.507 1123.66 297.507 1132.02 292.5C1128.37 292.001 1124.7 291.835 1121.02 292ZM827.016 298C799.346 305.262 775.846 319.596 756.516 341C753.511 344.623 751.511 348.623 750.516 353C752.153 355.31 754.32 356.81 757.016 357.5C764.001 358.593 770.667 357.593 777.016 354.5C800.851 341.005 821.351 323.505 838.516 302C839.629 300.74 839.796 299.573 839.016 298.5C835.03 298.001 831.03 297.834 827.016 298ZM490.016 299C460.668 307.096 436.502 323.096 417.516 347C413.484 352.239 414.651 355.739 421.016 357.5C424.683 358.167 428.349 358.167 432.016 357.5C441.728 354.144 450.728 349.478 459.016 343.5C476.557 330.962 492.557 316.629 507.016 300.5C501.535 299.051 495.868 298.551 490.016 299ZM1271.02 299C1266.1 300.32 1261.1 301.82 1256.02 303.5C1231.76 313.431 1211.93 328.931 1196.52 350C1195.78 351.941 1195.94 353.774 1197.02 355.5C1204.3 358.731 1211.63 358.731 1219.02 355.5C1227.85 351.255 1236.18 346.255 1244.02 340.5C1259.43 329.088 1273.6 316.255 1286.52 302C1287 301.052 1287.17 300.052 1287.02 299C1281.69 299 1276.35 299 1271.02 299ZM937.016 262C937.683 267 938.349 272 939.016 277C939.165 278.052 938.999 279.052 938.516 280C920.683 307.167 898.183 329.667 871.016 347.5C864.252 351.391 857.252 354.391 850.016 356.5C857.475 344.078 865.309 331.912 873.516 320C895.478 301.538 916.644 282.205 937.016 262ZM933.016 272C914.346 290.169 895.179 307.835 875.516 325C871.516 331 867.516 337 863.516 343C862.534 344.259 862.201 345.592 862.516 347C890.702 330.224 914.035 308.224 932.516 281C934.179 277.94 934.346 274.94 933.016 272ZM937.016 262C937.076 261.457 937.409 261.124 938.016 261C939.011 266.292 939.344 271.625 939.016 277C938.349 272 937.683 267 937.016 262ZM1121.02 275C1130.47 273.238 1138.64 275.571 1145.52 282C1147.37 284.963 1147.37 287.963 1145.52 291C1139.74 297.754 1132.58 302.588 1124.02 305.5C1107.6 309.557 1091.6 308.223 1076.02 301.5C1088.97 289.029 1103.97 280.196 1121.02 275ZM1121.02 292C1115.67 293.831 1110.34 295.997 1105.02 298.5C1114.66 299.507 1123.66 297.507 1132.02 292.5C1128.37 292.001 1124.7 291.835 1121.02 292ZM821.016 282C828.024 281.834 835.024 282 842.016 282.5C845.967 283.036 849.467 284.536 852.516 287C852.912 292.415 851.578 297.415 848.516 302C832.554 324.297 813.054 342.797 790.016 357.5C778.983 364.592 766.983 367.259 754.016 365.5C743.164 361.3 738.998 353.466 741.516 342C747.777 329.4 756.61 318.9 768.016 310.5C783.716 297.317 801.382 287.817 821.016 282ZM827.016 298C799.346 305.262 775.846 319.596 756.516 341C753.511 344.623 751.511 348.623 750.516 353C752.153 355.31 754.32 356.81 757.016 357.5C764.001 358.593 770.667 357.593 777.016 354.5C800.851 341.005 821.351 323.505 838.516 302C839.629 300.74 839.796 299.573 839.016 298.5C835.03 298.001 831.03 297.834 827.016 298ZM491.016 282C499.82 281.147 508.154 282.647 516.016 286.5C519.493 290.185 519.993 294.351 517.516 299C511.182 309.343 503.348 318.51 494.016 326.5C484.016 334.5 474.016 342.5 464.016 350.5C454.176 357.42 443.509 362.754 432.016 366.5C417.022 369.186 408.022 363.186 405.016 348.5C408.636 336.275 415.302 325.942 425.016 317.5C444.104 300.125 466.104 288.291 491.016 282ZM490.016 299C460.668 307.096 436.502 323.096 417.516 347C413.484 352.239 414.651 355.739 421.016 357.5C424.683 358.167 428.349 358.167 432.016 357.5C441.728 354.144 450.728 349.478 459.016 343.5C476.557 330.962 492.557 316.629 507.016 300.5C501.535 299.051 495.868 298.551 490.016 299ZM1272.02 282C1280.8 281.147 1289.14 282.647 1297.02 286.5C1298.88 287.682 1299.88 289.349 1300.02 291.5C1299.51 296.022 1298.01 300.189 1295.52 304C1289.76 311.765 1283.26 318.931 1276.02 325.5C1266.02 333.5 1256.02 341.5 1246.02 349.5C1234.37 358.743 1221.2 364.576 1206.52 367C1189.14 364.96 1183.14 355.627 1188.52 339C1204.94 315.588 1226.44 298.421 1253.02 287.5C1259.35 285.173 1265.68 283.34 1272.02 282ZM1271.02 299C1266.1 300.32 1261.1 301.82 1256.02 303.5C1231.76 313.431 1211.93 328.931 1196.52 350C1195.78 351.941 1195.94 353.774 1197.02 355.5C1204.3 358.731 1211.63 358.731 1219.02 355.5C1227.85 351.255 1236.18 346.255 1244.02 340.5C1259.43 329.088 1273.6 316.255 1286.52 302C1287 301.052 1287.17 300.052 1287.02 299C1281.69 299 1276.35 299 1271.02 299ZM1487.02 284C1487.69 287 1488.35 290 1489.02 293C1488.96 293.543 1488.63 293.876 1488.02 294C1487.03 290.732 1486.7 287.398 1487.02 284ZM1122.02 287C1125.7 286.835 1129.37 287.001 1133.02 287.5C1135.93 287.633 1138.27 288.8 1140.02 291C1136.74 294.772 1132.74 297.605 1128.02 299.5C1116.17 304.574 1104.17 305.241 1092.02 301.5C1101.19 294.747 1111.19 289.914 1122.02 287ZM1121.02 292C1115.67 293.831 1110.34 295.997 1105.02 298.5C1114.66 299.507 1123.66 297.507 1132.02 292.5C1128.37 292.001 1124.7 291.835 1121.02 292ZM822.016 294C828.691 293.834 835.358 294 842.016 294.5C843.9 294.716 845.567 295.383 847.016 296.5C841.953 304.898 836.12 312.731 829.516 320C816.509 333.015 802.342 344.515 787.016 354.5C777.187 360.779 766.521 363.112 755.016 361.5C744.412 357.907 742.579 351.74 749.516 343C765.51 323.687 785.01 308.854 808.016 298.5C812.802 296.978 817.468 295.478 822.016 294ZM827.016 298C799.346 305.262 775.846 319.596 756.516 341C753.511 344.623 751.511 348.623 750.516 353C752.153 355.31 754.32 356.81 757.016 357.5C764.001 358.593 770.667 357.593 777.016 354.5C800.851 341.005 821.351 323.505 838.516 302C839.629 300.74 839.796 299.573 839.016 298.5C835.03 298.001 831.03 297.834 827.016 298ZM491.016 294C498.171 293.589 505.171 294.422 512.016 296.5C512.473 296.914 512.807 297.414 513.016 298C510.592 303.186 507.425 307.853 503.516 312C487.506 327.351 470.34 341.184 452.016 353.5C446.47 356.44 440.803 359.106 435.016 361.5C426.835 364.302 419.335 363.135 412.516 358C411.44 356.433 410.607 354.766 410.016 353C411.239 349.553 412.739 346.22 414.516 343C434.998 318.657 460.498 302.324 491.016 294ZM490.016 299C460.668 307.096 436.502 323.096 417.516 347C413.484 352.239 414.651 355.739 421.016 357.5C424.683 358.167 428.349 358.167 432.016 357.5C441.728 354.144 450.728 349.478 459.016 343.5C476.557 330.962 492.557 316.629 507.016 300.5C501.535 299.051 495.868 298.551 490.016 299ZM1272.02 294C1279.18 293.589 1286.18 294.422 1293.02 296.5C1293.48 296.914 1293.81 297.414 1294.02 298C1289.64 305.549 1284.31 312.383 1278.02 318.5C1263.21 331.65 1247.54 343.65 1231.02 354.5C1222.13 360.244 1212.46 362.911 1202.02 362.5C1192.07 360.423 1189.23 354.923 1193.52 346C1213.7 319.656 1239.87 302.322 1272.02 294ZM1271.02 299C1266.1 300.32 1261.1 301.82 1256.02 303.5C1231.76 313.431 1211.93 328.931 1196.52 350C1195.78 351.941 1195.94 353.774 1197.02 355.5C1204.3 358.731 1211.63 358.731 1219.02 355.5C1227.85 351.255 1236.18 346.255 1244.02 340.5C1259.43 329.088 1273.6 316.255 1286.52 302C1287 301.052 1287.17 300.052 1287.02 299C1281.69 299 1276.35 299 1271.02 299ZM609.016 419C610.544 419.017 611.044 419.684 610.516 421C598.174 438.017 584.34 453.851 569.016 468.5C564.349 471.833 559.683 475.167 555.016 478.5C550.917 480.59 546.583 481.756 542.016 482C542.822 476.72 544.989 472.054 548.516 468C554.683 461.833 560.849 455.667 567.016 449.5C580.638 438.696 594.638 428.53 609.016 419ZM561.999 473.5C562.02 473.485 562.04 473.471 562.061 473.456L561.999 473.5Z" fill="black"/>
</svg>
